<svg preserveAspectRatio="xMidYMid meet" width="100%" height="100%" overflow="visible" style="display: block;" viewBox="0 0 74 74" fill="none" xmlns="http://www.w3.org/2000/svg">
<g id="circum:boxes">
<path id="Vector" d="M59.9246 35.4583H51.5379V14.06C51.5379 12.8334 51.0506 11.657 50.1833 10.7896C49.3159 9.92228 48.1395 9.435 46.9129 9.435H27.0871C25.8605 9.435 24.6841 9.92228 23.8167 10.7896C22.9494 11.657 22.4621 12.8334 22.4621 14.06V35.4583H14.0754C12.8488 35.4583 11.6724 35.9456 10.805 36.813C9.93769 37.6803 9.45042 38.8567 9.45042 40.0833V59.94C9.45042 61.1666 9.93769 62.343 10.805 63.2104C11.6724 64.0777 12.8488 64.565 14.0754 64.565H33.9167C35.0593 64.5671 36.1605 64.1376 37 63.3625C37.8443 64.1299 38.9424 64.5582 40.0833 64.565H59.94C61.1666 64.565 62.343 64.0777 63.2104 63.2104C64.0777 62.343 64.565 61.1666 64.565 59.94V40.0833C64.565 39.4747 64.4449 38.872 64.2115 38.3099C63.9781 37.7477 63.636 37.2372 63.2049 36.8075C62.7738 36.3778 62.2621 36.0375 61.6992 35.806C61.1363 35.5744 60.5332 35.4563 59.9246 35.4583ZM35.4583 59.94C35.4583 60.3489 35.2959 60.741 35.0068 61.0301C34.7177 61.3192 34.3255 61.4817 33.9167 61.4817H14.0754C13.6665 61.4817 13.2744 61.3192 12.9853 61.0301C12.6962 60.741 12.5338 60.3489 12.5338 59.94V40.0833C12.5338 39.6745 12.6962 39.2823 12.9853 38.9932C13.2744 38.7041 13.6665 38.5417 14.0754 38.5417H20.1496V44.7083C20.1496 45.1172 20.312 45.5093 20.6011 45.7985C20.8902 46.0876 21.2824 46.25 21.6912 46.25H26.3162C26.7227 46.2421 27.1102 46.0771 27.3976 45.7897C27.6851 45.5023 27.85 45.1147 27.8579 44.7083V38.5417H35.4583V59.94ZM25.5454 35.4583V14.06C25.5454 13.6511 25.7078 13.259 25.997 12.9699C26.2861 12.6808 26.6782 12.5183 27.0871 12.5183H33.1304V18.685C33.1304 19.0939 33.2928 19.486 33.582 19.7751C33.8711 20.0642 34.2632 20.2267 34.6721 20.2267H39.2971C39.706 20.2267 40.0981 20.0642 40.3872 19.7751C40.6763 19.486 40.8388 19.0939 40.8388 18.685V12.5183H46.9129C47.3218 12.5183 47.7139 12.6808 48.003 12.9699C48.2922 13.259 48.4546 13.6511 48.4546 14.06V35.4583H25.5454ZM61.4662 59.94C61.4584 60.3464 61.2934 60.734 61.006 61.0214C60.7185 61.3088 60.331 61.4738 59.9246 61.4817H40.0833C39.6769 61.4738 39.2894 61.3088 39.0019 61.0214C38.7145 60.734 38.5496 60.3464 38.5417 59.94V38.5417H46.1575V44.7083C46.1575 45.1172 46.3199 45.5093 46.609 45.7985C46.8982 46.0876 47.2903 46.25 47.6992 46.25H52.3242C52.733 46.25 53.1252 46.0876 53.4143 45.7985C53.7034 45.5093 53.8658 45.1172 53.8658 44.7083V38.5417H59.94C60.3489 38.5417 60.741 38.7041 61.0301 38.9932C61.3192 39.2823 61.4817 39.6745 61.4817 40.0833L61.4662 59.94Z" fill="var(--fill-0, #2C3278)"/>
</g>
</svg>
